<svg width="458" height="500" viewBox="0 0 458 500" fill="none" xmlns="http://www.w3.org/2000/svg">
<path d="M166.667 111.111H111.111V166.667H166.667V111.111ZM166.667 222.222H111.111V277.778H166.667V222.222ZM166.667 0C135.833 0 111.111 25 111.111 55.5556H166.667V0ZM277.778 333.333H222.222V388.889H277.778V333.333ZM444.444 0V55.5556H500C500 25 475 0 444.444 0ZM277.778 0H222.222V55.5556H277.778V0ZM166.667 388.889V333.333H111.111C111.111 363.889 135.833 388.889 166.667 388.889ZM444.444 277.778H500V222.222H444.444V277.778ZM444.444 166.667H500V111.111H444.444V166.667ZM444.444 388.889C475 388.889 500 363.889 500 333.333H444.444V388.889ZM55.5556 111.111H0V444.444C0 475 24.7222 500 55.5556 500H388.889V444.444H55.5556V111.111ZM333.333 55.5556H388.889V0H333.333V55.5556ZM333.333 388.889H388.889V333.333H333.333V388.889Z" fill="#202024" fill-opacity="0.2"/>
</svg>
